<svg width="585" height="577" xmlns="http://www.w3.org/2000/svg">

 <g>
  <title>background</title>
  <rect fill="none" id="canvas_background" height="579" width="587" y="-1" x="-1"/>
 </g>
 <g>
  <title>Layer 1</title>
  <g stroke="null" id="svg_4">
   <g stroke="null" id="svg_5">
    <path fill="#000000" stroke="null" id="svg_6" d="m529,428l-14.032,0c-0.44,-1.112 -0.896,-2.216 -1.392,-3.328l9.928,-9.928c3.128,-3.128 3.128,-8.184 0,-11.312l-33.936,-33.936c-1.656,-1.656 -3.84,-2.376 -6.008,-2.272c12.68,-6.728 21.44,-19.904 21.44,-35.224l0,-208c0,-22.056 -17.944,-40 -40,-40l-368,0c-22.056,0 -40,17.944 -40,40l0,208c0,22.056 17.944,40 40,40l104.4,0l-30.224,56l-2.176,0l-12,0c-15.44,0 -28,12.56 -28,28s12.56,28 28,28l172,0c0,4.424 3.576,8 8,8l14.032,0c0.44,1.112 0.896,2.216 1.392,3.328l-9.928,9.928c-3.128,3.128 -3.128,8.184 0,11.312l33.936,33.936c3.128,3.128 8.184,3.128 11.312,0l9.928,-9.928c1.112,0.496 2.216,0.952 3.328,1.392l0,14.032c0,4.424 3.576,8 8,8l48,0c4.424,0 8,-3.576 8,-8l0,-14.032c1.112,-0.44 2.216,-0.896 3.328,-1.392l9.928,9.928c3.128,3.128 8.184,3.128 11.312,0l33.936,-33.936c3.128,-3.128 3.128,-8.184 0,-11.312l-9.928,-9.928c0.496,-1.112 0.952,-2.216 1.392,-3.328l14.032,0c4.424,0 8,-3.576 8,-8l0,-48c0,-4.424 -3.576,-8 -8,-8zm-456,-304c0,-13.232 10.768,-24 24,-24l368,0c13.232,0 24,10.768 24,24l0,168l-416,0l0,-168zm24,232c-13.232,0 -24,-10.768 -24,-24l0,-24l416,0l0,24c0,13.232 -10.768,24 -24,24l-8,0l-48,0l-61.808,0l-132.384,0l-117.808,0zm381.152,13.6l-9.824,9.824c-1.112,-0.496 -2.216,-0.952 -3.328,-1.392l0,-6.032c4.632,0 9.008,-0.944 13.152,-2.4zm-77.152,2.4l0,6.032c-1.112,0.44 -2.216,0.896 -3.328,1.392l-7.424,-7.424l10.752,0zm-27.08,0l-6.896,6.896l-4.696,-6.896l11.592,0zm-44.92,96l-172,0c-6.616,0 -12,-5.384 -12,-12c0,-6.616 5.384,-12 12,-12l12,0l6.944,0l153.056,0l0,24zm-139.644,-40.008l30.22,-55.992l123.392,0l12.544,18.408l-13.016,13.016c-3.128,3.128 -3.128,8.184 0,11.312l9.928,9.928c-0.496,1.112 -0.952,2.216 -1.392,3.328l-14.032,0l-147.644,0zm331.644,48.008l-11.672,0c-3.496,0 -6.576,2.264 -7.632,5.592c-1.216,3.864 -2.856,7.8 -4.88,11.672c-1.616,3.104 -1.032,6.888 1.44,9.36l8.288,8.288l-22.624,22.624l-8.288,-8.288c-2.48,-2.472 -6.256,-3.048 -9.36,-1.44c-3.872,2.024 -7.808,3.664 -11.672,4.88c-3.336,1.064 -5.6,4.144 -5.6,7.64l0,11.672l-32,0l0,-11.672c0,-3.496 -2.264,-6.576 -5.592,-7.632c-3.864,-1.216 -7.8,-2.856 -11.672,-4.88c-3.104,-1.608 -6.888,-1.032 -9.36,1.44l-8.288,8.288l-22.624,-22.624l8.288,-8.288c2.472,-2.472 3.056,-6.256 1.44,-9.36c-2.024,-3.872 -3.664,-7.808 -4.88,-11.672c-1.064,-3.336 -4.144,-5.6 -7.64,-5.6l-11.672,0l0,-32l11.672,0c3.496,0 6.576,-2.264 7.632,-5.592c1.216,-3.864 2.856,-7.8 4.88,-11.672c1.616,-3.104 1.032,-6.888 -1.44,-9.36l-8.288,-8.288l22.624,-22.624l8.288,8.288c2.472,2.48 6.256,3.056 9.36,1.44c3.872,-2.024 7.808,-3.664 11.672,-4.88c3.336,-1.064 5.6,-4.144 5.6,-7.64l0,-11.672l32,0l0,11.672c0,3.496 2.264,6.576 5.592,7.632c3.864,1.216 7.8,2.856 11.672,4.88c3.104,1.616 6.88,1.04 9.36,-1.44l8.288,-8.288l22.624,22.624l-8.288,8.288c-2.472,2.472 -3.056,6.256 -1.44,9.36c2.024,3.872 3.664,7.808 4.88,11.672c1.064,3.336 4.144,5.6 7.64,5.6l11.672,0l0,32z"/>
   </g>
  </g>
  <g id="svg_7">
   <g id="svg_8">
    <path fill="#000000" id="svg_9" d="m432,412c-26.472,0 -48,21.528 -48,48s21.528,48 48,48s48,-21.528 48,-48s-21.528,-48 -48,-48zm0,80c-17.648,0 -32,-14.352 -32,-32s14.352,-32 32,-32s32,14.352 32,32s-14.352,32 -32,32z"/>
   </g>
  </g>
  <g id="svg_10">
   <g id="svg_11">
    <path fill="#000000" id="svg_12" d="m213.656,145.656l-11.312,-11.312l-56,56c-3.128,3.128 -3.128,8.184 0,11.312l56,56l11.312,-11.312l-50.344,-50.344l50.344,-50.344z"/>
   </g>
  </g>
  <g id="svg_13">
   <g id="svg_14">
    <path fill="#000000" id="svg_15" d="m389.656,190.344l-56,-56l-11.312,11.312l50.344,50.344l-50.344,50.344l11.312,11.312l56,-56c3.128,-3.128 3.128,-8.184 0,-11.312z"/>
   </g>
  </g>
  <g id="svg_16">
   <g id="svg_17">
    <rect fill="#000000" id="svg_18" height="16" width="160.955" transform="matrix(0.4472,-0.8944,0.8944,0.4472,24.1457,247.1068) " y="183.67553" x="81.419555"/>
   </g>
  </g>
  <g id="svg_19">
   <g id="svg_20">
    <rect fill="#000000" id="svg_21" height="16" width="16" y="244" x="368"/>
   </g>
  </g>
  <g id="svg_22">
   <g id="svg_23">
    <rect fill="#000000" id="svg_24" height="16" width="16" y="244" x="400"/>
   </g>
  </g>
  <g id="svg_25">
   <g id="svg_26">
    <rect fill="#000000" id="svg_27" height="16" width="16" y="244" x="432"/>
   </g>
  </g>
  <g id="svg_28"/>
  <g id="svg_29"/>
  <g id="svg_30"/>
  <g id="svg_31"/>
  <g id="svg_32"/>
  <g id="svg_33"/>
  <g id="svg_34"/>
  <g id="svg_35"/>
  <g id="svg_36"/>
  <g id="svg_37"/>
  <g id="svg_38"/>
  <g id="svg_39"/>
  <g id="svg_40"/>
  <g id="svg_41"/>
  <g id="svg_42"/>
  <text font-weight="bold" xml:space="preserve" text-anchor="start" font-family="Helvetica, Arial, sans-serif" font-size="69" id="svg_44" y="69" x="10.5" stroke-width="0" stroke="#000" fill="#000000">PauTreadwell.ML</text>
 </g>
</svg>